<svg version="1.1" id="Layer_1" xmlns="http://www.w3.org/2000/svg" xmlns:xlink="http://www.w3.org/1999/xlink" x="0px" y="0px"
     width="51.922px" height="39.062px" viewBox="0 0 51.922 39.062" enable-background="new 0 0 51.922 39.062" xml:space="preserve">
<g>
    <path fill="#848282" d="M44.639,0H7.283C2.777,5.061,0,11.942,0,19.531C0,27.119,2.776,34,7.283,39.062h37.356
        c4.506-5.062,7.283-11.943,7.283-19.531C51.922,11.942,49.146,5.061,44.639,0z"/>
    <path fill="#F4EFEF" stroke="#F4EFEF" stroke-width="4" stroke-miterlimit="10" d="M19.942,13.422
        c2.437-4.164-3.393-8.996-7.032-5.83c-6.665,7.109-5.627,18.782,0.695,25.77c1.571,2.037,3.379,3.897,5.267,5.699h13.67
        c-2.339-2.248-4.753-4.402-6.907-6.578C20.6,27.83,14.31,20.133,19.942,13.422z"/>
    <path fill="#F4EFEF" stroke="#F4EFEF" stroke-width="4" stroke-miterlimit="10" d="M32.54,0H18.855
        c5.738,5.493,12.244,10.41,15.104,17.972c1.984,4.75-4.771,8.434-2.064,12.971c2.085,3.662,7.739,2.389,8.838-1.449
        c1.705-2.958,2.809-6.322,2.796-9.759C43.498,11.481,38.229,5.463,32.54,0z"/>
</g>
</svg>
